<svg height="52" viewBox="0 0 186 52" width="186" xmlns="http://www.w3.org/2000/svg"><g fill="none" fill-rule="evenodd"><path d="m19.3854387 19.0689886c-1.3996012-1.1205418-2.8591574-1.6820698-4.3806207-1.6820698-2.6235202 0-4.6430285.8020632-6.05964019 2.4047926-1.41661169 1.6035676-2.12491754 3.9027594-2.12491754 6.898693 0 5.8521835 2.81565517 8.7771578 8.44668663 8.7771578.6299461 0 1.4035053-.1880141 2.3215143-.5646011.918009-.3765869 1.5172803-.7576437 1.7969775-1.1431704zm0 21.4182429v-1.7083302c-.542105.5961695-1.460114 1.1171893-2.7543059 1.5641768-1.2947496.4464287-2.6321649.6696431-4.0136401.6696431-3.91743333 0-6.99967921-1.2437427-9.24645882-3.7315073-2.24761619-2.4877647-3.37114542-5.9566669-3.37114542-10.4067066 0-4.4500396 1.28973013-8.072035 3.86891154-10.8668242 2.58001799-2.7939511 5.81061769-4.1916251 9.6934723-4.1916251 2.1332833 0 4.0744317.4377684 5.8231664 1.3138638v-11.27386218l6.5582429-1.57674832v40.2079202z" fill="#fff"/><path d="m37.486334 26.3484869c0 6.2022306 2.2297691 9.3032062 6.6887497 9.3032062 2.0465577 0 3.6686896-.8056949 4.8666746-2.4173641 1.1968696-1.6116693 1.7964198-3.9069499 1.7964198-6.8858421 0-6.1136712-2.2205667-9.1716243-6.6630944-9.1716243-2.046 0-3.6723149.8065331-4.8792234 2.4182023-1.206072 1.6122279-1.8095263 3.8630892-1.8095263 6.753422m-6.8203718 0c0-4.2919179 1.2367466-7.7873599 3.7116342-10.4852087 2.4743298-2.6978488 5.7406237-4.0474716 9.7974873-4.0474716 4.2671244 0 7.5816611 1.2971018 9.9424947 3.8893498 2.3605547 2.5933654 3.5409715 6.1413285 3.5409715 10.6433305 0 4.4855193-1.2027256 8.0510825-3.6062249 10.6961309-2.4048935 2.6456071-5.6974003 3.9681313-9.8772413 3.9681313-4.2668456 0-7.5852864-1.3356544-9.9547647-4.0075221-2.3700359-2.6715882-3.5543568-6.2237418-3.5543568-10.6567401" fill="#84d3f0"/><g fill="#fff"><path d="m67.3639016 22.2226249c0 1.664749.4592834 3.0004034 1.3767347 4.0080808.9185667 1.0076774 2.1553133 1.511097 3.7121919 1.511097 1.5568785 0 2.7548636-.4905687 3.5942339-1.4717062.8388126-.9811375 1.2584977-2.3302016 1.2584977-4.0474716 0-1.4186265-.4503598-2.6187879-1.3502429-3.5999254-.9009985-.9811375-2.0680299-1.4717063-3.5024887-1.4717063-1.5038951 0-2.728093.4726893-3.6723149 1.4191853-.9442218.9456578-1.4166117 2.1634194-1.4166117 3.6524464m-6.5576851 25.4916957 4.1441469-5.1247114c2.2911185 2.1027967 4.8449236 3.1534966 7.6602999 3.1534966 1.8881649 0 3.4450434-.2804846 4.6697991-.8406158 1.2230824-.5606899 1.836018-1.3317433 1.836018-2.3128808 0-1.664749-1.356099-2.4967044-4.0666237-2.4967044-.7342399 0-1.8273733.0880006-3.278006.2628845-1.452027.1751632-2.5451604.2631639-3.2794003.2631639-4.5128006 0-6.7685038-1.620609-6.7685038-4.8621063 0-.9286165.3764618-1.8396328 1.1282699-2.7333284.7520869-.8931369 1.6265937-1.5502085 2.6235202-1.970656-3.2007616-2.0849173-4.8005847-5.0367108-4.8005847-8.8562188 0-3.0132543 1.1017781-5.5060476 3.3044978-7.4764242 2.2041139-1.9712148 4.9146387-2.9568222 8.131853-2.9568222 2.5189476 0 4.6265758.4726893 6.3226057 1.4191853l2.5702579-2.9959336 4.5381769 4.1259738-3.1215652 2.2863409c1.0844888 1.6471489 1.6265937 3.5915444 1.6265937 5.834304 0 3.2057383-.9748965 5.768094-2.9249685 7.6867878-1.9497931 1.9184143-4.4110165 2.8774818-7.3845067 2.8774818-.4715533 0-1.1009416-.0435812-1.888165-.1315819l-1.0755652-.1575631c-.1224198 0-.5906267.1885729-1.4032264.5651598-.8137151.376587-1.220015.7665835-1.220015 1.1691516 0 .7012116.6028966 1.0515381 1.8098051 1.0515381.542105 0 1.452027-.131582 2.7283718-.3944665 1.2763449-.2626051 2.3694783-.3941871 3.2791215-.3941871 6.3831184 0 9.5741199 2.5668256 9.5741199 7.7004768 0 2.8378117-1.2763448 5.0671617-3.8293133 6.6877707-2.5538051 1.6203296-5.6310315 2.4313325-9.2336312 2.4313325-4.301982 0-8.194039-1.2705619-11.6733823-3.8108476"/><path d="m95.9048906 19.2270824v14.7952855c1.1893403.9640961 2.5791814 1.4451664 4.1703594 1.4451664 3.025359 0 5.198519-.7221642 6.518924-2.1678893 1.320405-1.4451664 1.981025-3.7273168 1.981025-6.8458926 0-3.3283804-.656159-5.6719916-1.96764-7.0297161-1.31176-1.3577245-3.480459-2.0368661-6.505817-2.0368661-1.5744466 0-2.9732113.6137697-4.1968514 1.8399122m0 20.5508079v11.7471103h-6.5588006v-39.1834809h6.5588006v1.8924333c1.6430464-1.612228 3.6636701-2.4179229 6.0593614-2.4179229 8.953655 0 13.43104 4.9406084 13.43104 14.8218253 0 4.6081615-1.237862 8.1555659-3.712192 10.6433305-2.474329 2.4877647-5.854119 3.7315073-10.137976 3.7315073-2.0638466 0-3.9442035-.4115078-5.6402334-1.2348029"/><path d="m126.308584 1.43527678c1.049074 0 1.945611.37267581 2.688774 1.11718932.743163.74451352 1.115163 1.64212024 1.115163 2.69337891 0 1.05153804-.372 1.94914476-1.115163 2.69365827-.743163.74479288-1.6397 1.11718932-2.688774 1.11718932-1.049073 0-1.94561-.37239644-2.688494-1.11718932-.744279-.74451351-1.115443-1.64212023-1.115443-2.69365827 0-1.05125867.371164-1.94886539 1.115443-2.69337891.742884-.74451351 1.639421-1.11718932 2.688494-1.11718932zm-3.384251 39.05217822v-22.7586466h-3.593677v-5.3873166h10.230837v28.1459632z"/><path d="m138.322734 1.85611549 6.557685-1.57674832v31.64084653c0 3.4689022 1.032342 5.5362193 3.095911 6.2022306-1.014774 1.9273541-2.74594 2.8903328-5.193779 2.8903328-2.97349 0-4.459817-2.0667584-4.459817-6.2016719z"/><path d="m158.285777 23.4841632h13.7983c-.454543-4.117034-2.728093-6.1756907-6.820093-6.1756907-3.742867 0-6.0694 2.0586567-6.978207 6.1756907m19.831448 4.9406085h-20.067922c.122699 2.2427596.892354 3.9860108 2.308966 5.2300328 1.416611 1.2437426 3.322344 1.8653346 5.718315 1.8653346 2.989943 0 5.263493-.7791551 6.820371-2.3383032l2.544882 5.0191106c-2.308687 1.8748331-5.754567 2.8118306-10.335688 2.8118306-4.285251 0-7.672849-1.2565936-10.164747-3.7708981-2.492177-2.5137458-3.738684-6.0223182-3.738684-10.5248789 0-4.4324395 1.36809-8.0239839 4.105107-10.7751918 2.737295-2.7503698 6.020878-4.1259738 9.851028-4.1259738 4.074711 0 7.344909 1.2180409 9.810594 3.6532846 2.465685 2.4349642 3.698807 5.5362192 3.698807 9.3026474 0 .8062537-.183212 2.0237358-.551029 3.6530052"/></g><g fill="#84d3f0"><path d="m36.7823505 9.68602303c0 1.87678867-1.5186746 3.39822227-3.3920599 3.39822227-1.8731065 0-3.3917812-1.5214336-3.3917812-3.39822227 0-1.87678866 1.5186747-3.39822228 3.3917812-3.39822228 1.8733853 0 3.3920599 1.52143362 3.3920599 3.39822228"/><path d="m44.6969433 6.28794044c0 1.87678866-1.5186746 3.39822228-3.3920599 3.39822228-1.8731065 0-3.3917812-1.52143362-3.3917812-3.39822228 0-1.87678867 1.5186747-3.39822229 3.3917812-3.39822229 1.8733853 0 3.3920599 1.52143362 3.3920599 3.39822229"/><path d="m53.1843436 7.42066257c0 1.87678866-1.5186746 3.39822233-3.3920599 3.39822233-1.8731065 0-3.3917812-1.52143367-3.3917812-3.39822233s1.5186747-3.39822228 3.3917812-3.39822228c1.8733853 0 3.3920599 1.52143362 3.3920599 3.39822228"/><path d="m60.5258222 11.9513835c0 1.8767887-1.5183958 3.3982223-3.3917811 3.3982223s-3.39206-1.5214336-3.39206-3.3982223 1.5186747-3.39822229 3.39206-3.39822229 3.3917811 1.52143359 3.3917811 3.39822229"/></g><path d="m181.168155 9.85367127v1.67676173c.060792.0083811.218627.0122922.473505.0122922.469323 0 .784156-.0597846.946453-.1793537.161181-.1192898.241772-.3472534.241772-.6833321 0-.5548232-.363355-.83251421-1.090902-.83251421h-.286111zm2.008354 4.42936653-1.280807-2.1690067h-.727547v2.1690067h-.722249v-5.04956165h1.293077c1.212485 0 1.819565.46626381 1.819565 1.39767395 0 .6484112-.325709 1.106294-.977128 1.373369l1.377014 2.2785187zm2.14639-2.4726789c0-.9478928-.333239-1.7566607-.999994-2.42462764-.667035-.66852564-1.474336-1.00264878-2.42051-1.00264878-.946453 0-1.754312.33412314-2.423856 1.00264878-.668987.66796694-1.00334 1.47673484-1.00334 2.42462764 0 .9478929.334353 1.7572196 1.00334 2.4274214.669544.6704812 1.477403 1.0054425 2.423856 1.0054425.946174 0 1.753475-.3349613 2.42051-1.0054425.666755-.6702018.999994-1.4795285.999994-2.4274214zm-7.514735 0c0-1.1303195.399886-2.09553311 1.201331-2.89592006.800609-.79982821 1.764351-1.20016137 2.8929-1.20016137s2.091175.40033316 2.890669 1.20016137c.798099.80038695 1.197985 1.76560056 1.197985 2.89592006 0 1.1300403-.399886 2.0960919-1.197985 2.8981551-.799494.8023425-1.76212 1.2035138-2.890669 1.2035138s-2.092291-.4011713-2.8929-1.2035138c-.801445-.8020632-1.201331-1.7681148-1.201331-2.8981551z" fill="#fff"/></g></svg>